<svg version="1.2" xmlns="http://www.w3.org/2000/svg" viewBox="0 0 265 265" width="265" height="265">
	<title>Instagram_logo_2022-svg</title>
	<defs>
		<radialGradient id="g1" cx="0" cy="0" r="1" gradientUnits="userSpaceOnUse" gradientTransform="matrix(-162.707,45.887,-45.887,-162.707,256.04,124.013)">
			<stop offset="0" stop-color="#ff005f"/>
			<stop offset="1" stop-color="#fc01d8"/>
		</radialGradient>
		<radialGradient id="g2" cx="0" cy="0" r="1" gradientUnits="userSpaceOnUse" gradientTransform="matrix(0,-211.195,211.195,0,70.278,284.962)">
			<stop offset="0" stop-color="#ffcc00" stop-opacity="1"/>
			<stop offset=".124" stop-color="#ffcc00" stop-opacity="1"/>
			<stop offset=".567" stop-color="#fe4a05" stop-opacity="1"/>
			<stop offset=".694" stop-color="#ff0f3f" stop-opacity="1"/>
			<stop offset="1" stop-color="#fe0657" stop-opacity="0"/>
		</radialGradient>
		<radialGradient id="g3" cx="0" cy="0" r="1" gradientUnits="userSpaceOnUse" gradientTransform="matrix(43.837,-75.532,75.532,43.837,138.977,260.852)">
			<stop offset="0" stop-color="#ffcc00" stop-opacity="1"/>
			<stop offset="1" stop-color="#ffcc00" stop-opacity="0"/>
		</radialGradient>
		<radialGradient id="g4" cx="0" cy="0" r="1" gradientUnits="userSpaceOnUse" gradientTransform="matrix(-160.921,45.313,-45.313,-160.921,35.898,10.774)">
			<stop offset="0" stop-color="#780cff" stop-opacity="1"/>
			<stop offset="1" stop-color="#820bff" stop-opacity="0"/>
		</radialGradient>
	</defs>
	<style>
		.s0 { fill: url(#g1) } 
		.s1 { fill: url(#g2) } 
		.s2 { fill: url(#g3) } 
		.s3 { fill: url(#g4) } 
		.s4 { fill: #ffffff } 
	</style>
	<g>
		<path class="s0" d="m132.3 0c-55.2 0-71.3 0.1-74.5 0.3-11.3 1-18.4 2.7-26.1 6.6-5.9 2.9-10.6 6.3-15.2 11.1q-12.5 13.1-15.3 32.2c-0.9 6.2-1.1 7.4-1.2 39 0 10.6 0 24.4 0 43 0 55.2 0.1 71.4 0.3 74.5 1 11 2.7 18 6.3 25.6 7 14.5 20.4 25.4 36.2 29.5 5.4 1.4 11.4 2.2 19.2 2.5 3.2 0.2 36.6 0.3 70.1 0.3 33.4 0 66.8-0.1 70-0.2 8.9-0.4 14.1-1.1 19.9-2.6 15.8-4.1 28.9-14.9 36.1-29.6 3.6-7.4 5.4-14.6 6.2-25.1 0.2-2.3 0.3-38.6 0.3-74.9 0-36.3-0.1-72.6-0.3-74.9-0.8-10.6-2.6-17.7-6.3-25.3-3.1-6.2-6.5-10.8-11.4-15.5-8.7-8.4-19.4-13.4-32.2-15.3-6.2-0.9-7.4-1.1-39-1.2z"/>
		<path class="s1" d="m132.3 0c-55.2 0-71.3 0.1-74.5 0.3-11.3 1-18.4 2.7-26.1 6.6-5.9 2.9-10.6 6.3-15.2 11.1q-12.5 13.1-15.3 32.2c-0.9 6.2-1.1 7.4-1.2 39 0 10.6 0 24.4 0 43 0 55.2 0.1 71.4 0.3 74.5 1 11 2.7 18 6.3 25.6 7 14.5 20.4 25.4 36.2 29.5 5.4 1.4 11.4 2.2 19.2 2.5 3.2 0.2 36.6 0.3 70.1 0.3 33.4 0 66.8-0.1 70-0.2 8.9-0.4 14.1-1.1 19.9-2.6 15.8-4.1 28.9-14.9 36.1-29.6 3.6-7.4 5.4-14.6 6.2-25.1 0.2-2.3 0.3-38.6 0.3-74.9 0-36.3-0.1-72.6-0.3-74.9-0.8-10.6-2.6-17.7-6.3-25.3-3.1-6.2-6.5-10.8-11.4-15.5-8.7-8.4-19.4-13.4-32.2-15.3-6.2-0.9-7.4-1.1-39-1.2z"/>
		<path class="s2" d="m132.3 0c-55.2 0-71.3 0.1-74.5 0.3-11.3 1-18.4 2.7-26.1 6.6-5.9 2.9-10.6 6.3-15.2 11.1q-12.5 13.1-15.3 32.2c-0.9 6.2-1.1 7.4-1.2 39 0 10.6 0 24.4 0 43 0 55.2 0.1 71.4 0.3 74.5 1 11 2.7 18 6.3 25.6 7 14.5 20.4 25.4 36.2 29.5 5.4 1.4 11.4 2.2 19.2 2.5 3.2 0.2 36.6 0.3 70.1 0.3 33.4 0 66.8-0.1 70-0.2 8.9-0.4 14.1-1.1 19.9-2.6 15.8-4.1 28.9-14.9 36.1-29.6 3.6-7.4 5.4-14.6 6.2-25.1 0.2-2.3 0.3-38.6 0.3-74.9 0-36.3-0.1-72.6-0.3-74.9-0.8-10.6-2.6-17.7-6.3-25.3-3.1-6.2-6.5-10.8-11.4-15.5-8.7-8.4-19.4-13.4-32.2-15.3-6.2-0.9-7.4-1.1-39-1.2z"/>
		<path class="s3" d="m132.3 0c-55.2 0-71.3 0.1-74.5 0.3-11.3 1-18.4 2.7-26.1 6.6-5.9 2.9-10.6 6.3-15.2 11.1q-12.5 13.1-15.3 32.2c-0.9 6.2-1.1 7.4-1.2 39 0 10.6 0 24.4 0 43 0 55.2 0.1 71.4 0.3 74.5 1 11 2.7 18 6.3 25.6 7 14.5 20.4 25.4 36.2 29.5 5.4 1.4 11.4 2.2 19.2 2.5 3.2 0.2 36.6 0.3 70.1 0.3 33.4 0 66.8-0.1 70-0.2 8.9-0.4 14.1-1.1 19.9-2.6 15.8-4.1 28.9-14.9 36.1-29.6 3.6-7.4 5.4-14.6 6.2-25.1 0.2-2.3 0.3-38.6 0.3-74.9 0-36.3-0.1-72.6-0.3-74.9-0.8-10.6-2.6-17.7-6.3-25.3-3.1-6.2-6.5-10.8-11.4-15.5-8.7-8.4-19.4-13.4-32.2-15.3-6.2-0.9-7.4-1.1-39-1.2z"/>
		<path fill-rule="evenodd" class="s4" d="m132.3 34c26.7 0 30.1 0.1 40.6 0.6 10.4 0.4 17.6 2.1 23.9 4.5 6.4 2.5 11.9 5.9 17.4 11.4 5.5 5.4 8.8 10.9 11.3 17.4 2.5 6.2 4.1 13.4 4.6 23.8 0.5 10.5 0.6 13.9 0.6 40.6 0 26.7-0.1 30-0.6 40.5-0.5 10.5-2.1 17.6-4.6 23.9-2.5 6.4-5.8 11.9-11.3 17.4-5.5 5.4-11 8.8-17.4 11.3-6.3 2.4-13.4 4.1-23.9 4.6-10.5 0.5-13.8 0.6-40.6 0.6-26.7 0-30-0.1-40.5-0.6-10.5-0.5-17.6-2.2-23.9-4.6-6.5-2.5-12-5.9-17.4-11.3-5.5-5.5-8.9-11-11.4-17.4-2.4-6.3-4.1-13.4-4.5-23.9-0.5-10.5-0.6-13.8-0.6-40.5 0-26.7 0.1-30.1 0.6-40.6 0.4-10.4 2.1-17.6 4.5-23.8 2.5-6.5 5.9-12 11.4-17.4 5.4-5.5 10.9-8.9 17.4-11.4 6.3-2.4 13.4-4.1 23.9-4.5 10.5-0.5 13.8-0.6 40.5-0.6zm-8.8 17.7c-18.3 0-21.8 0.1-30.9 0.5-9.6 0.5-14.8 2.1-18.3 3.4-4.6 1.8-7.8 3.9-11.3 7.4-3.4 3.4-5.6 6.7-7.3 11.3-1.4 3.4-3 8.6-3.4 18.2-0.5 10.4-0.6 13.5-0.6 39.7 0 26.3 0.1 29.4 0.6 39.8 0.4 9.5 2 14.7 3.4 18.2 1.7 4.6 3.9 7.9 7.3 11.3 3.5 3.4 6.7 5.6 11.3 7.4 3.5 1.3 8.7 2.9 18.3 3.3 10.4 0.5 13.5 0.6 39.7 0.6 26.3 0 29.4-0.1 39.8-0.6 9.6-0.4 14.8-2 18.3-3.3 4.6-1.8 7.8-4 11.3-7.4 3.4-3.4 5.5-6.7 7.3-11.3 1.4-3.5 3-8.7 3.4-18.2 0.5-10.4 0.6-13.5 0.6-39.7 0-26.3-0.1-29.4-0.6-39.8-0.4-9.5-2-14.7-3.4-18.2-1.8-4.6-3.9-7.9-7.3-11.3-3.5-3.5-6.7-5.6-11.3-7.4-3.5-1.3-8.7-2.9-18.3-3.3-10.4-0.5-13.5-0.6-39.8-0.6q-4.9 0-8.8 0zm73.2 28.1c0 6.5-5.3 11.8-11.8 11.8-6.6 0-11.8-5.3-11.8-11.8 0-6.5 5.2-11.8 11.8-11.8 6.5 0 11.8 5.3 11.8 11.8zm-13.8 52.5c0 27.9-22.7 50.5-50.6 50.5-27.9 0-50.5-22.6-50.5-50.5 0-27.9 22.6-50.5 50.5-50.5 27.9 0 50.6 22.6 50.6 50.5zm-83.3 0c0 18.1 14.6 32.8 32.7 32.8 18.2 0 32.8-14.7 32.8-32.8 0-18.1-14.6-32.8-32.8-32.8-18.1 0-32.7 14.7-32.7 32.8z"/>
	</g>
</svg>