<svg xmlns="http://www.w3.org/2000/svg"  viewBox="0 0 48 48" width="48px" height="48px" baseProfile="basic"><linearGradient id="ngRV9W-4eXm-Rx1uJ_fx_a" x1="-15.854" x2="52.417" y1="-47.007" y2="64.07" gradientUnits="userSpaceOnUse"><stop offset="0" stop-color="#fed100"/><stop offset="1" stop-color="#e36001"/></linearGradient><path fill="url(#ngRV9W-4eXm-Rx1uJ_fx_a)" d="M44,12v2.62c0,9.72-4.42,18.92-12.01,24.99L24,46l-7.99-6.39C8.42,33.54,4,24.34,4,14.62V12	c4.52,0,8.23-3.54,8.49-8h23.02C35.77,8.46,39.48,12,44,12z"/><path d="M24,38.6c-0.227,0-0.448-0.078-0.625-0.22l-5.06-4.05c-5.074-4.05-7.985-10.101-7.985-16.6v-1.66	c0-0.551,0.448-1,1-1c2.325,0,4.25-1.812,4.382-4.126C15.741,10.415,16.18,10,16.71,10H24c0.552,0,1,0.449,1,1v26.6	c0,0.382-0.223,0.736-0.566,0.901C24.299,38.566,24.148,38.6,24,38.6z" opacity=".05"/><path d="M24,38.1c-0.111,0-0.222-0.037-0.313-0.11l-5.06-4.05c-4.955-3.955-7.798-9.864-7.798-16.21v-1.66	c0-0.276,0.224-0.5,0.5-0.5c2.591,0,4.734-2.02,4.881-4.598c0.015-0.265,0.234-0.472,0.499-0.472H24c0.276,0,0.5,0.224,0.5,0.5v26.6	c0,0.192-0.11,0.368-0.283,0.451C24.147,38.084,24.073,38.1,24,38.1z" opacity=".07"/><path fill="#fff" d="M24,11v26.6l-5.06-4.05c-4.81-3.84-7.61-9.67-7.61-15.82v-1.66c2.87,0,5.22-2.25,5.38-5.07H24z"/></svg>